<?xml version="1.0" standalone="no"?>
<!DOCTYPE svg PUBLIC "-//W3C//DTD SVG 20010904//EN"
 "http://www.w3.org/TR/2001/REC-SVG-20010904/DTD/svg10.dtd">
<svg version="1.0" xmlns="http://www.w3.org/2000/svg"
 width="746.000000pt" height="746.000000pt" viewBox="0 0 746.000000 746.000000"
 preserveAspectRatio="xMidYMid meet">
<metadata>
Created by potrace 1.14, written by Peter Selinger 2001-2017
</metadata>
<g transform="translate(0.000000,746.000000) scale(0.100000,-0.100000)"
fill="#000000" stroke="none">
<path d="M3493 6178 c-285 -485 -816 -1387 -1368 -2323 -230 -390 -498 -845
-595 -1010 -97 -165 -365 -619 -595 -1010 -230 -390 -451 -765 -491 -833 -41
-68 -74 -125 -74 -128 0 -2 1512 -4 3360 -4 1848 0 3360 2 3360 4 0 3 -33 60
-74 128 -40 68 -187 317 -326 553 -556 944 -786 1336 -860 1460 -43 72 -265
450 -495 840 -442 751 -984 1671 -1368 2323 -128 215 -234 392 -237 392 -3 0
-109 -177 -237 -392z m479 -581 c273 -464 1025 -1740 1138 -1932 42 -71 73
-131 69 -133 -5 -2 -40 1 -78 7 -41 6 -225 11 -440 11 l-371 0 0 -1020 0
-1020 140 0 140 0 0 409 0 409 268 4 c296 5 361 16 491 79 127 63 234 201 263
340 7 33 14 59 18 59 4 0 531 -891 897 -1517 l72 -123 -2849 0 -2849 0 63 107
c94 161 1213 2060 1335 2268 59 99 192 325 296 502 l190 322 3 -1009 2 -1010
140 0 140 0 0 409 0 409 268 4 c296 5 361 16 491 79 76 38 175 132 214 206 91
171 91 476 0 646 -44 82 -136 168 -223 209 -146 69 -160 71 -608 75 -372 4
-404 6 -399 21 2 9 106 190 231 402 125 212 334 566 464 787 130 222 239 403
242 403 3 0 112 -181 242 -403z m-437 -1451 c156 -41 247 -153 261 -319 17
-192 -62 -338 -215 -399 -51 -20 -76 -23 -293 -26 l-238 -4 0 381 0 381 218 0
c149 0 233 -4 267 -14z m1520 -840 c157 -41 247 -152 261 -319 17 -192 -62
-338 -215 -399 -51 -20 -76 -23 -293 -26 l-238 -4 0 381 0 381 218 0 c149 0
233 -4 267 -14z"/>
</g>
</svg>
